<?xml version="1.0" encoding="utf-8"?>
<!-- Generator: Adobe Illustrator 24.3.0, SVG Export Plug-In . SVG Version: 6.00 Build 0)  -->
<svg version="1.1" id="Layer_1" xmlns="http://www.w3.org/2000/svg" xmlns:xlink="http://www.w3.org/1999/xlink" x="0px" y="0px"
	 viewBox="0 0 1750 1750" style="enable-background:new 0 0 1750 1750;" xml:space="preserve">
<style type="text/css">
	.st0{fill:#242291;}
	.st1{fill:#FF50CE;}
	.st2{fill:#FF50CE;stroke:#000000;stroke-width:7;stroke-miterlimit:10;}
	.st3{fill:none;stroke:#000000;stroke-width:4;stroke-miterlimit:10;}
	.st4{fill:#FF50CE;stroke:#000000;stroke-width:4;stroke-miterlimit:10;}
	.st5{fill:none;stroke:#000000;stroke-miterlimit:10;}
	.st6{fill:#FFFFFF;stroke:#FFFFFF;stroke-miterlimit:10;}
	.st7{stroke:#000000;stroke-miterlimit:10;}
	.st8{fill:#FF00A1;}
	.st9{fill:#F299C7;}
	.st10{fill:#F299C7;stroke:#000000;stroke-width:4;stroke-miterlimit:10;}
</style>
<path class="st0" d="M354.38,1222.01c-5.19,2.18-20.54,8.17-22.94,19.88c-5.27,25.71,55.78,58.46,76.97,69.83
	c155.07,83.19,621.06,162.71,1046.01,99.55c42.22-6.27,124.09-19.91,138.54-66.93c10.59-34.48-19.66-72.01-30.58-85.63
	C1360.78,1007.29,508.64,1157.06,354.38,1222.01z"/>
<g>
	<path class="st1" d="M303.3,817.33c-6.17,13.73-13.96,28.91-23.84,44.83c-8,12.89-16.14,24.3-23.96,34.28
		c-13.87-21.22-26.04-41.59-36.7-60.78c-7.04-12.66-20.37-37.32-24.47-63.2c-0.12-0.73-0.26-1.72-0.41-2.69
		c-3.38-22.43-4.94-40.39-5.45-47.39c-2.19-29.81-3.28-44.71,1.78-62.06c3.78-12.93,8.98-31.57,25.49-38.23
		c13.2-5.33,25.44-1.33,29.05,0c4.42-8.91,15.51-28.25,38.22-43.15c24.07-15.8,47.68-17.75,57.6-18.01
		c5.14,0.36,15.28,1.81,25.49,8.66c6.2,4.17,10.29,8.91,12.73,12.22"/>
	<path d="M303.3,817.33c-2.97,7.13-6.13,14.19-9.56,21.13c-3.44,6.93-7.05,13.78-10.93,20.49c-3.87,6.71-7.96,13.3-12.23,19.77
		c-4.26,6.48-8.8,12.78-13.48,18.97l-1.68,2.22l-1.6-2.36c-7.71-11.39-15.18-22.95-22.34-34.71c-3.59-5.87-7.11-11.78-10.58-17.73
		c-3.45-5.95-6.91-11.9-10.14-18.04c-6.47-12.25-12.16-25.03-16.14-38.49c-0.51-1.68-0.93-3.39-1.39-5.08
		c-0.44-1.7-0.8-3.43-1.2-5.14c-0.35-1.73-0.64-3.47-0.97-5.21l-0.79-5.13c-1.02-6.82-1.94-13.66-2.76-20.5
		c-0.81-6.85-1.54-13.71-2.14-20.59c-0.3-3.45-0.54-6.88-0.8-10.3c-0.26-3.43-0.51-6.86-0.71-10.3c-0.4-6.89-0.76-13.82-0.62-20.85
		c0.13-7.02,0.81-14.18,2.48-21.12c0.38-1.74,0.89-3.46,1.36-5.16l1.48-4.97c1.02-3.33,2.15-6.69,3.5-9.99
		c1.36-3.3,2.95-6.56,4.88-9.68c1.96-3.1,4.29-6.04,7.04-8.6c1.35-1.31,2.89-2.43,4.43-3.53l2.44-1.46c0.81-0.49,1.7-0.82,2.55-1.24
		c3.44-1.54,7.05-2.5,10.73-2.99c3.68-0.49,7.4-0.47,11.04-0.01c3.64,0.45,7.21,1.33,10.65,2.62l-3.64,1.45
		c4.66-9.1,10.53-17.55,17.42-25.06c6.89-7.5,14.76-14.1,23.43-19.4c8.64-5.33,17.99-9.48,27.71-12.26
		c9.73-2.76,19.79-4.22,29.86-4.3l0.08,0l0.03,0c3.81,0.34,7.58,1.12,11.21,2.25c3.64,1.14,7.14,2.68,10.43,4.56
		c6.59,3.78,12.22,9.07,16.49,15.23c-2.31-2.95-4.93-5.65-7.8-8.02c-2.87-2.37-6-4.4-9.29-6.1c-3.3-1.68-6.76-3.01-10.33-3.94
		c-3.56-0.93-7.22-1.47-10.88-1.67l0.11,0c-9.84,0.47-19.59,2.29-28.9,5.33c-9.33,2.98-18.22,7.27-26.35,12.65
		c-8.14,5.37-15.53,11.83-21.94,19.13c-6.41,7.31-11.82,15.48-16.04,24.2l-1.13,2.33l-2.51-0.88c-6.02-2.11-12.59-2.95-18.82-2.02
		c-3.11,0.46-6.19,1.33-8.99,2.63c-0.68,0.35-1.41,0.62-2.06,1.03l-1.96,1.2c-1.23,0.92-2.48,1.83-3.57,2.93
		c-2.24,2.14-4.18,4.64-5.85,7.36c-1.65,2.74-3.03,5.69-4.26,8.74c-1.23,3.05-2.28,6.21-3.26,9.44l-1.44,4.9
		c-0.43,1.61-0.9,3.19-1.24,4.8c-3.03,12.83-2.36,26.38-1.51,40c0.46,6.79,0.91,13.7,1.45,20.46c0.56,6.79,1.25,13.59,2.02,20.37
		c0.78,6.78,1.66,13.56,2.64,20.32l0.75,5.05c0.3,1.64,0.57,3.28,0.89,4.92c0.36,1.63,0.68,3.27,1.08,4.9
		c0.43,1.62,0.8,3.25,1.27,4.86c3.64,12.93,8.98,25.44,15.16,37.53c12.61,24.19,26.54,47.86,41.11,71.04l-3.27-0.14
		c4.84-5.97,9.47-12.1,13.97-18.34c4.49-6.24,8.8-12.62,12.91-19.13c4.12-6.51,8.07-13.12,11.81-19.87
		C296.34,831.12,299.94,824.28,303.3,817.33z"/>
</g>
<path class="st2" d="M401.17,1171.45c-32.72-14.38-61.06-38.13-61.06-38.13c-29.2-24.48-48.13-51.43-56.07-65.75
	c-30.63-55.24-18.52-139.98,27.01-217.64c-8.09-26.86-23.24-91.03,1.53-163.62c11.04-32.37,26.87-57.15,40.27-74.42
	c26.26-33.41,83.34-96,176.87-130.99c80.92-30.28,152.41-26.17,192.67-23.45c36.76,2.49,58.81,3.98,84.1,13.76
	c84.98,32.87,130.74,130.01,142.61,184.09C1006.49,916.79,500.41,1215.06,401.17,1171.45z"/>
<path class="st2" d="M474.04,1295.03c14.45,4.24,34.74,9.82,59.25,15.29c40.4,9.02,73.82,13.65,109.59,17.71
	c81.83,9.29,159.77,13.78,205.79,15.93c83.24,4.56,195.53,10.37,324.94,16.06c7.03,0.31,65.53,2.78,143.35,1.15
	c68.27-1.43,102.83-2.29,123.48-9.17c24-8.01,94.9-39.14,138.26-187.06c7.56-40.26,25.83-165.98-42.82-298.69
	c-54.81-105.95-136.74-161.7-173.3-183.49c-72.99-43.51-140.13-56.01-169.22-60.15c-158.93-22.59-283.31,47.87-344.56,82.57
	c-83.98,47.57-139.64,103.67-170.24,138.64c-56.58,64.67-89.82,128.37-109.08,173.3c-0.43,1.01-0.94,2.61-28.71,79.82
	c-4.36,12.13-8.73,24.26-13.09,36.39c-5.68,4.73-13.5,10.61-23.45,16.31c-5.61,3.21-16.82,9.64-29.56,13.25
	c-27.16,7.69-37.5-4.15-59.13,2.04c-9.05,2.59-21.25,8.68-33.64,24.47c-10.43,13.29-11.64,27.48-12.23,32.62
	c-0.51,4.47-4.14,41.64,24.08,65.37C415.4,1305.57,447.18,1308.63,474.04,1295.03z"/>
<path class="st3" d="M811.59,1244.18c4.27,24.28,14.37,59.12,39.76,92.51c12.16,16,27.03,35.55,54.28,48.17
	c36.99,17.12,73.05,10.47,92.51,6.88c24.12-4.45,42.89-12.72,55.05-19.11"/>
<path class="st4" d="M1488.99,1186.08c-7.63,7.76-52.29,54.67-44.34,118.51c1.22,9.8,7.34,58.96,38.99,71.87
	c39.51,16.11,100.54-31.69,120.04-86.39c13.7-38.44,15.85-105.43-24.98-125.13C1553.18,1152.61,1517.93,1162.17,1488.99,1186.08z"/>
<path class="st1" d="M1117.58,1198.23c27.93,2.5,46.53,34.95,62.15,62.2c21.69,37.83,27.2,74.14,28.71,96.2
	c-2.02,6.84-8.75,26.36-28.33,41.36c-22.15,16.98-45.93,16.84-52.6,16.57c-9.53-0.4-24.05-2.28-39.35-9.97
	c-35.88-18.01-55.92-57.76-56.98-93.21C1029.46,1253.77,1077.49,1194.64,1117.58,1198.23z"/>
<path class="st1" d="M857.46,1279.68l-0.16,61.28c6.59,9.4,22.79,29.83,51.51,42.57c32.23,14.3,61.16,10.47,72.17,8.42
	c9.56-1.09,20.59-3.03,32.6-6.44c15.87-4.5,29.14-10.35,39.61-15.87c-7.31-26.62-14.61-53.24-21.92-79.86
	C973.33,1286.42,915.4,1283.05,857.46,1279.68z"/>
<g>
	<path d="M1375.27,883.55c0.12-6.8-0.7-13.6-2.45-20.13c-1.78-6.54-3.85-13.05-7.07-18.93c-1.62-2.89-3.56-5.68-6.08-7.55
		c-2.49-1.95-5.67-2.27-8.45-0.91c-2.78,1.29-5.15,3.66-6.79,6.35c-1.68,2.7-2.44,5.76-2.19,8.86c0.23,3.11,1.37,6.16,2.81,9.12
		c0.74,1.53,1.47,2.92,2.37,4.3c0.89,1.37,1.83,2.72,2.87,3.98c4.06,5.12,9.28,9.32,15.26,11.49c5.98,2.18,12.6,2.04,18.78,0.22
		c6.21-1.79,12.04-5.04,17.38-8.91c5.32-3.9,10.33-8.41,14.48-13.45c4.2-5.04,7.5-10.74,10.35-16.79c1.45-3.02,2.79-6.14,4.33-9.3
		c1.57-3.14,3.29-6.44,6.16-9.32c1.43-1.42,3.17-2.67,5.1-3.5c1.92-0.84,3.95-1.29,5.92-1.46c3.94-0.3,7.88,0.3,11.59,2.07
		c1.84,0.89,3.61,2.17,5.05,3.87c0.38,0.42,0.67,0.88,0.96,1.35c0.28,0.47,0.6,0.93,0.83,1.41l0.61,1.45
		c0.1,0.24,0.21,0.49,0.29,0.73l0.2,0.73c1.09,3.91,1.07,7.7,0.74,11.33c-0.36,3.64-1.08,7.17-2.08,10.59
		c-0.98,3.42-2.16,6.76-3.55,10c-2.73,6.51-6.13,12.67-10.05,18.5c-3.92,5.82-8.31,11.33-13.26,16.34
		c-9.85,10.01-21.81,18.28-35.36,22.91c-6.78,2.3-13.84,3.62-20.91,4.1c-7.07,0.5-14.2,0.21-21.2-0.97
		c-7-1.13-13.88-3.12-20.43-5.96c-6.54-2.86-12.72-6.66-18.16-11.4c-5.4-4.76-10.07-10.44-13.48-16.8
		c-1.79-3.14-3.12-6.48-4.38-9.84c-1.11-3.41-2.12-6.85-2.71-10.39c-0.69-3.51-0.98-7.09-1.13-10.67
		c-0.02-3.58,0.08-7.18,0.63-10.73c1-7.1,3.13-14.11,6.59-20.44c0.92-1.56,1.72-3.16,2.76-4.67c1-1.5,2.05-2.93,3.15-4.33
		c2.19-2.8,4.57-5.44,7.12-7.92c5.11-4.94,11.01-9.24,17.69-12.13c6.66-2.91,14.15-4.2,21.42-3.49c3.64,0.34,7.19,1.17,10.64,2.3
		c3.41,1.24,6.7,2.78,9.76,4.69c6.09,3.86,11.35,8.96,15.34,14.89c1.06,1.44,1.9,3.02,2.83,4.55l1.21,2.38l0.6,1.19l0.52,1.23
		l1.03,2.46l0.86,2.53l0.43,1.26l0.34,1.29l0.68,2.58l-0.05-0.19c0.99,3.14,1.69,6.38,2.04,9.67c0.17,1.64,0.26,3.3,0.24,4.95
		l-0.05,4.74l-0.08,9.4c-0.02,1.59-0.01,3.08-0.06,4.79c-0.08,1.62-0.19,3.22-0.34,4.81c-0.29,3.17-0.67,6.33-1.12,9.47
		c-0.48,3.14-1.02,6.27-1.65,9.38c-1.29,6.22-2.82,12.42-5.27,18.41c-1.26,2.98-2.78,5.85-4.53,8.55c-1.77,2.7-3.77,5.22-5.92,7.59
		c-4.31,4.75-9.33,8.76-14.61,12.27c-5.31,3.48-10.95,6.43-16.76,8.89c-5.82,2.47-11.8,4.52-17.89,6.11l-0.11-0.38
		c6.04-1.71,11.95-3.88,17.68-6.45c5.72-2.58,11.26-5.58,16.46-9.1c5.17-3.55,10.04-7.57,14.18-12.28c2.07-2.35,3.98-4.84,5.66-7.48
		c1.66-2.66,3.08-5.45,4.26-8.35c2.29-5.84,3.71-11.98,4.89-18.14c1.14-6.18,1.98-12.41,2.5-18.66c0.14-1.56,0.23-3.13,0.29-4.69
		c0.03-1.55,0.01-3.14,0.02-4.71l-0.01-9.44c-0.03-3.15,0.11-6.28-0.27-9.39c-0.35-3.11-1.04-6.17-2.01-9.14l0,0l-0.01-0.02
		l-0.67-2.45l-0.34-1.23l-0.42-1.2l-0.84-2.4l-1-2.34l-0.5-1.17l-0.58-1.13l-1.17-2.26c-0.9-1.44-1.7-2.94-2.73-4.29
		c-3.85-5.59-8.86-10.35-14.61-13.93c-2.89-1.77-5.99-3.18-9.18-4.31c-3.23-1.02-6.55-1.76-9.92-2.05c-6.75-0.6-13.61,0.66-19.8,3.4
		c-6.21,2.72-11.78,6.78-16.64,11.51c-2.43,2.37-4.69,4.91-6.78,7.59c-1.04,1.34-2.04,2.71-2.98,4.13c-0.96,1.4-1.71,2.92-2.57,4.38
		c-3.24,5.96-5.21,12.56-6.14,19.27c-0.51,3.35-0.59,6.75-0.56,10.14c0.16,3.38,0.44,6.77,1.11,10.1
		c2.38,13.34,9.15,25.96,19.46,34.81c10.28,8.9,23.34,14.2,36.71,16.32c6.7,1.08,13.53,1.4,20.3,0.95
		c6.77-0.44,13.5-1.67,19.93-3.83c12.88-4.36,24.39-12.22,33.94-21.86c4.79-4.82,9.07-10.14,12.88-15.77
		c3.81-5.63,7.13-11.59,9.78-17.85c1.35-3.12,2.49-6.32,3.44-9.58c0.96-3.25,1.66-6.59,2-9.95c0.33-3.35,0.31-6.79-0.58-10.02
		l-0.16-0.61c-0.07-0.2-0.16-0.39-0.23-0.58l-0.48-1.15c-0.18-0.37-0.42-0.71-0.63-1.07c-0.21-0.35-0.43-0.71-0.71-1.01
		c-1.06-1.26-2.42-2.28-3.92-3c-3.01-1.46-6.44-2.01-9.78-1.76c-1.67,0.14-3.32,0.51-4.85,1.17c-1.53,0.66-2.92,1.62-4.11,2.79
		c-2.4,2.35-4.06,5.36-5.59,8.38c-1.52,3.04-2.9,6.16-4.4,9.23c-2.97,6.14-6.49,12.09-10.93,17.31c-4.42,5.24-9.59,9.79-15.14,13.79
		c-5.57,3.95-11.67,7.29-18.3,9.13c-6.58,1.88-13.8,1.97-20.27-0.47c-6.47-2.42-11.95-6.97-16.14-12.37
		c-2.1-2.7-3.95-5.63-5.34-8.76c-1.44-3.09-2.63-6.39-2.83-9.86c-0.23-3.45,0.72-6.97,2.61-9.86c1.85-2.9,4.42-5.41,7.6-6.84
		c1.58-0.71,3.36-1.05,5.1-0.82c1.75,0.2,3.38,0.98,4.75,2.04c2.76,2.13,4.7,5.07,6.32,8.07c3.19,6.08,5.2,12.67,6.83,19.28
		c1.63,6.64,2.31,13.51,2.04,20.34L1375.27,883.55z"/>
</g>
<path class="st5" d="M1404.63,869.93c0.42-0.3,0.85-0.59,1.27-0.89"/>
<g>
	<path class="st1" d="M680.59,547.16c5.3-25.78,16.59-69.29,40.39-109.97c2.03-3.48,17.41-29.21,42.18-44.98
		c8.86-5.64,16.95-8.76,25.99-9.17c9.9-0.45,17.47,2.49,21.41,4.08c13.98,5.62,22.44,15.36,26.5,20.9
		c0.57-3.07,4.2-20.98,21.41-32.11c18.58-12.02,38.03-6.44,40.78-5.61c30.39,9.27,50.66,28.34,60.65,40.27
		c19.54,23.31,26.82,46.52,31.09,60.65c12.56,41.53,8.79,77.12,5.1,109.08c-3.03,26.2-8.24,47.58-12.51,62.39
		c-33.24,14.37-66.49,28.74-99.73,43.12c-16.58-9.93-49.6-32.73-74.31-74.93c-22.11-37.75-27.19-73.29-28.54-92.26"/>
	<path d="M680.59,547.16c2.04-10.81,4.45-21.55,7.33-32.18c2.9-10.62,6.22-21.14,10.01-31.49c3.8-10.35,8.08-20.54,12.9-30.48
		c1.19-2.49,2.49-4.93,3.72-7.4c1.24-2.47,2.63-4.86,3.94-7.3c2.63-4.89,5.71-9.57,8.96-14.07c3.27-4.5,6.75-8.84,10.47-12.99
		c3.73-4.14,7.71-8.06,11.93-11.74c4.18-3.72,8.76-6.99,13.48-10.06c4.77-2.99,9.93-5.59,15.51-7.18c5.58-1.59,11.47-2.1,17.25-1.54
		c5.78,0.54,11.43,2.22,16.61,4.44c5.32,2.2,10.28,5.21,14.77,8.79c4.48,3.6,8.47,7.77,11.9,12.37l-5.11,1.17
		c0.81-4.38,2.19-8.53,4.03-12.52c1.83-3.98,4.16-7.75,6.94-11.17c2.78-3.42,6.02-6.47,9.6-9.06c1.76-1.34,3.69-2.42,5.59-3.55
		c1.98-0.98,3.95-1.99,6.04-2.73c8.28-3.16,17.32-4,26.01-2.87c2.18,0.3,4.34,0.69,6.51,1.27c1.12,0.28,2.11,0.64,3.12,0.96
		l3.04,0.99c2.02,0.68,3.99,1.49,5.98,2.23c1.96,0.82,3.92,1.67,5.86,2.54c7.72,3.59,15.08,7.95,21.97,12.94
		c6.87,5.02,13.28,10.65,19.13,16.85c5.85,6.25,10.98,13,15.61,20.13l1.72,2.68l1.63,2.74c1.11,1.81,2.08,3.7,3.13,5.55
		c1.96,3.76,3.85,7.56,5.52,11.46c3.39,7.76,6.12,15.81,8.53,23.8c2.4,8.08,4.37,16.31,5.82,24.63c2.88,16.65,3.52,33.61,2.69,50.36
		c-0.4,8.38-1.16,16.72-2.05,25.01c-0.45,4.15-0.92,8.26-1.42,12.41c-0.5,4.16-1.1,8.3-1.74,12.43c-2.6,16.53-6.24,32.9-10.94,48.96
		l-0.42,1.42l-1.33,0.57l-49.97,21.31l-50.01,21.22l-1.18,0.5l-1.07-0.65c-14.72-8.92-28.23-19.73-40.37-31.86
		c-6.08-6.06-11.74-12.52-17.01-19.28c-1.33-1.68-2.66-3.36-3.88-5.13c-1.24-1.75-2.51-3.48-3.73-5.24
		c-2.34-3.59-4.76-7.12-6.89-10.84c-2.26-3.64-4.25-7.43-6.29-11.19l-2.85-5.75c-0.97-1.9-1.78-3.89-2.68-5.82
		c-3.46-7.81-6.47-15.82-8.97-23.98c-5.03-16.31-8-33.23-8.92-50.21c0.76,8.47,2.02,16.88,3.79,25.18
		c1.77,8.3,3.94,16.51,6.65,24.53c2.7,8.03,5.88,15.89,9.5,23.53c0.94,1.89,1.79,3.83,2.8,5.69l2.96,5.6
		c2.12,3.66,4.17,7.35,6.49,10.88c2.19,3.61,4.67,7.03,7.06,10.51c2.54,3.37,5.02,6.78,7.73,10.01c5.3,6.55,10.98,12.8,17.06,18.63
		c12.12,11.7,25.6,21.97,40.07,30.5l-2.24-0.15l49.72-21.89l49.76-21.81l-1.75,1.99c4.5-15.84,7.95-31.96,10.37-48.24
		c0.59-4.07,1.15-8.15,1.61-12.23c0.49-4.09,0.94-8.23,1.38-12.33c0.87-8.21,1.58-16.42,1.96-24.61
		c0.76-16.38,0.09-32.79-2.73-48.86c-1.42-8.03-3.35-15.95-5.68-23.78c-2.36-7.91-4.95-15.61-8.19-23.07
		c-1.59-3.74-3.39-7.38-5.25-10.98c-0.99-1.77-1.91-3.58-2.97-5.3l-1.55-2.62l-1.63-2.56c-4.38-6.8-9.32-13.32-14.8-19.21
		c-5.52-5.89-11.62-11.27-18.13-16.06c-6.55-4.74-13.5-8.93-20.8-12.4c-1.84-0.84-3.69-1.65-5.54-2.45
		c-1.89-0.72-3.75-1.5-5.66-2.16l-2.87-0.96c-0.96-0.32-1.92-0.67-2.82-0.9c-1.84-0.5-3.76-0.87-5.69-1.15
		c-7.73-1.06-15.72-0.38-22.99,2.34c-1.84,0.63-3.57,1.51-5.31,2.34c-1.67,0.98-3.38,1.91-4.94,3.08c-3.16,2.25-6.04,4.9-8.51,7.9
		c-2.48,3-4.56,6.34-6.25,9.87c-1.69,3.52-2.99,7.29-3.73,11.07l-1.28,6.48l-3.83-5.31c-6.16-8.53-14.49-15.53-24.13-19.69
		c-4.89-2.17-9.88-3.71-15.07-4.27c-5.17-0.57-10.42-0.19-15.44,1.17c-5.02,1.37-9.85,3.63-14.43,6.4c-4.54,2.84-9,5.89-13.1,9.42
		c-4.13,3.48-8.06,7.21-11.77,11.17c-3.7,3.97-7.18,8.15-10.46,12.49c-1.63,2.18-3.21,4.38-4.73,6.64c-1.53,2.26-2.98,4.51-4.33,6.9
		c-1.35,2.37-2.79,4.7-4.08,7.12c-1.29,2.41-2.63,4.8-3.88,7.23c-5.03,9.72-9.54,19.72-13.58,29.92
		c-4.04,10.2-7.61,20.58-10.78,31.1C685.79,525.79,683.01,536.43,680.59,547.16z"/>
</g>
<path class="st3" d="M1028.72,1312.23c1.88,13.55,7.34,38.9,25.99,63.46c7.56,9.95,19.98,26.3,40.52,34.41
	c22.98,9.06,51.52,6.01,73.5-5.15c9.77-4.96,18.24-11.51,24.36-19.32c24.92-31.78,17.2-88.22-6.81-133.53
	c-19.32-36.46-49.2-65.71-81.12-69.08c-11.94-1.26-30.8,0.4-55.05,17.58"/>
<path class="st6" d="M406.81,818.72c-13.72-2.27-30.26,14.8-37.64,28.91c-10.47,20.02-5.22,39.27-3.82,44.09
	c4.81,16.57,20.27,43.31,42.05,41.54c17.61-1.43,28.2-20.59,29.74-23.48C438.45,857.84,424.76,821.69,406.81,818.72z"/>
<path class="st6" d="M681.48,720.57c-7.92-6.69-16.84-8.13-22.57-9.06c-21.99-3.56-39.49,6.85-46.88,11.24
	c-9.32,5.54-26.55,15.79-32.62,36.44c-4.07,13.84-1.15,25.66,0.44,31.76c1.75,6.73,9.89,37.98,39.83,47.41
	c22.11,6.97,45.14-1.43,58.87-15.45c14.58-14.88,15.76-33.11,16.82-49.49C696.29,759.26,697.9,734.44,681.48,720.57z"/>
<path class="st7" d="M389.17,879.24c4.36,22.18,21.34,46.64,34.79,44.34c13.41-2.29,20.52-30.69,18.73-51.8
	c-2.21-26.12-19.26-55.24-33.26-53.71C395.31,819.61,383.9,852.38,389.17,879.24z"/>
<path class="st7" d="M646.76,772.28c5.97,21.8,24.7,44.95,37.94,41.68c13.21-3.26,18.22-32.11,14.89-53.03
	c-4.12-25.89-23.25-53.68-37.1-51.13C648.51,712.37,639.53,745.89,646.76,772.28z"/>
<g>
	<path d="M882.31,692.56c-14.61,9.47-28.38,20.1-40.87,32.06c-6.22,6-12.22,12.22-17.83,18.78c-5.56,6.6-10.9,13.38-15.76,20.51
		c-9.83,14.17-18.13,29.4-24.84,45.33c-3.35,7.97-6.31,16.11-8.84,24.4c-1.32,4.13-2.44,8.32-3.56,12.52
		c-1.06,4.21-2.07,8.44-2.98,12.7c0.49-4.33,1.14-8.64,1.9-12.93c0.41-2.14,0.8-4.29,1.28-6.42l0.7-3.2l0.77-3.19
		c2.11-8.48,4.69-16.86,7.84-25.03c3.09-8.2,6.76-16.18,10.81-23.95c1.02-1.94,2.11-3.84,3.17-5.77c1.06-1.92,2.23-3.78,3.34-5.67
		c1.09-1.9,2.33-3.71,3.51-5.56c1.21-1.83,2.33-3.72,3.62-5.49l3.83-5.35c1.26-1.8,2.67-3.48,4-5.23c1.34-1.73,2.68-3.47,4.12-5.13
		c1.42-1.67,2.81-3.37,4.26-5.01c5.86-6.53,12.02-12.78,18.57-18.59C852.38,710.65,866.86,700.6,882.31,692.56z"/>
</g>
<path class="st1" d="M1403.8,874.08c1.51-1.1,3.63-2.71,6.05-4.84c1.87-1.65,2-1.91,2.29-1.85c3.74,0.74-3.66,44.19-10.96,47.27
	c-2.24,0.95-4.84,1.59-4.84,1.59c-1.82,0.45-3.45,0.69-4.78,0.83"/>
<g>
	<path d="M818.55,393.23c5.66,3.35,10.84,7.53,15.48,12.25c2.34,2.34,4.49,4.88,6.56,7.47c2.02,2.63,3.95,5.35,5.66,8.2
		c3.49,5.66,6.26,11.76,8.34,18.05c2.05,6.3,3.39,12.82,3.71,19.4c-1.96-6.28-4.1-12.38-6.63-18.3c-2.55-5.9-5.49-11.61-8.83-17.07
		c-3.33-5.47-7.05-10.69-11.12-15.67C827.63,402.59,823.19,397.89,818.55,393.23z"/>
</g>
<g>
	<path d="M241.51,694.5c-2.36-6.45-3.89-13.23-4.71-20.09c-0.43-3.43-0.61-6.89-0.71-10.35c-0.02-3.46,0.09-6.93,0.38-10.38
		c0.62-6.9,1.92-13.75,3.94-20.36c2.02-6.61,4.7-13.01,8.17-18.95c-2.33,6.46-4.35,12.96-5.91,19.56c-0.75,3.31-1.45,6.62-1.96,9.96
		c-0.29,1.67-0.49,3.34-0.73,5.01c-0.18,1.68-0.39,3.36-0.51,5.04c-0.63,6.73-0.69,13.5-0.34,20.27
		C239.5,680.97,240.35,687.72,241.51,694.5z"/>
</g>
<g>
	<path class="st8" d="M451.37,1045.37c-2.44-3.74-7.01-10.89-10.04-21.41c-0.53-1.83-2.5-8.96-2.91-19.12
		c-0.25-6.31-0.72-22.37,6.81-39.33c2.6-5.85,8.1-16.22,24.78-31c19.9-17.62,40.06-35.49,72.47-39.78
		c10.77-1.43,45.51-4.52,76.43,18.39c9.18,6.8,26.06,19.04,31.35,38.99c11.7,44.18-42,92.29-79.77,112.9
		c-18.5,10.1-50.45,28.09-80.02,15.8C469.42,1072.08,454.41,1050.05,451.37,1045.37z"/>
	<g>
		<path d="M451.37,1045.37c-3.61-5.41-6.64-11.22-8.79-17.37c-2.21-6.13-3.4-12.58-3.98-19.06c-0.51-6.48-0.59-13.02,0.11-19.5
			c0.71-6.47,2.06-12.9,4.28-19.04c1.09-3.08,2.36-6.09,3.86-9c1.52-2.9,3.26-5.68,5.17-8.33c3.84-5.3,8.24-10.16,12.92-14.71
			c2.32-2.29,4.77-4.47,7.18-6.65c2.42-2.17,4.85-4.35,7.31-6.48c4.92-4.27,9.97-8.42,15.3-12.23c10.61-7.64,22.49-13.81,35.26-17.2
			c12.76-3.33,26.09-4.42,39.23-3.16c13.15,1.19,26.13,4.85,37.94,10.9c0.75,0.35,1.47,0.76,2.19,1.18l2.15,1.25
			c1.44,0.83,2.89,1.64,4.23,2.62l4.11,2.81c1.33,0.95,2.63,1.93,3.94,2.92c5.23,3.97,10.35,8.24,14.81,13.22
			c4.5,4.92,8.28,10.59,11.02,16.77c2.64,6.22,4.08,12.96,4.19,19.71c0.15,6.76-1.18,13.44-3.25,19.77c-2.09,6.34-5,12.34-8.4,18
			c-6.83,11.33-15.56,21.3-25,30.35c-9.49,9.03-19.8,17.15-30.7,24.35c-5.45,3.6-11.09,6.94-16.85,9.98
			c-5.73,3.07-11.52,6.1-17.47,8.78c-5.95,2.69-12.06,5.04-18.35,6.8c-6.28,1.78-12.76,2.91-19.29,3.15
			c-6.52,0.26-13.1-0.54-19.33-2.5c-6.26-1.91-12.01-5.15-17.3-8.92c-5.28-3.81-10.12-8.21-14.5-13.01
			C458.96,1055.95,454.93,1050.82,451.37,1045.37z M451.37,1045.37c3.58,5.43,7.64,10.54,12.05,15.32
			c4.4,4.79,9.25,9.16,14.54,12.94c5.28,3.77,11.08,6.89,17.31,8.72c6.21,1.88,12.74,2.59,19.2,2.26
			c6.47-0.29,12.87-1.57,19.07-3.45c6.2-1.87,12.22-4.32,18.07-7.1c5.86-2.78,11.55-5.89,17.22-9.07
			c5.68-3.14,11.18-6.54,16.52-10.21c10.66-7.34,20.72-15.57,29.9-24.65c9.16-9.09,17.47-19.09,23.95-30.14
			c3.23-5.52,5.95-11.33,7.87-17.37c1.9-6.03,3.04-12.32,2.89-18.58c-0.13-6.26-1.48-12.45-3.94-18.2
			c-2.56-5.71-6.11-10.99-10.39-15.65c-4.21-4.74-9.11-8.86-14.21-12.77c-1.29-0.97-2.58-1.95-3.89-2.9l-3.94-2.71
			c-1.29-0.94-2.67-1.73-4.05-2.53l-2.06-1.21c-0.68-0.41-1.37-0.81-2.1-1.14c-11.3-5.88-23.75-9.61-36.5-10.9
			c-6.37-0.65-12.8-0.87-19.21-0.46c-3.2,0.19-6.4,0.47-9.56,1.02c-3.18,0.42-6.31,1.12-9.44,1.84
			c-12.48,3.06-24.18,8.84-34.8,16.18c-5.33,3.66-10.41,7.68-15.39,11.84c-2.49,2.08-4.95,4.2-7.41,6.32
			c-2.45,2.14-4.91,4.24-7.26,6.47c-4.73,4.42-9.18,9.16-13.07,14.33c-1.94,2.59-3.71,5.3-5.26,8.14c-1.55,2.84-2.84,5.82-3.95,8.86
			c-2.27,6.07-3.69,12.45-4.47,18.89c-0.76,6.45-0.8,12.98-0.29,19.45c0.55,6.47,1.71,12.92,3.9,19.05
			C444.78,1034.13,447.78,1039.95,451.37,1045.37z"/>
	</g>
</g>
<path class="st10" d="M640.84,890.7c-18.22,26.9-37.2,58.48-55.05,94.8c-25.23,51.38-41.85,99.33-53.01,140.17"/>
<path class="st1" d="M674.27,881.61c-1.05-0.04-3.02,0.28-4.46,0.52c-13.78,2.26-24.51,10.14-33.25,19.04
	c-12.47,12.69-18.68,25.2-31.64,49.99c-24.17,46.22-21.9,39.7-28.07,53.19c-4.5,9.83-14.06,31.56-23.75,62.38
	c-16.81,53.46-25.22,80.19-17.89,87.73c22.84,23.48,172.59-33.46,192.13-134.22C738.71,961.62,703.46,882.63,674.27,881.61z"/>
<g>
	<path d="M506.28,971.75c-3.16,0.03-6.29,0.35-9.33,0.99c-3.02,0.69-5.98,1.66-8.57,3.24c-2.59,1.54-4.89,3.54-6.48,6.03
		c-0.84,1.21-1.45,2.56-1.99,3.91c-0.5,1.38-0.86,2.82-1.09,4.28c-0.82,5.89,0.18,12.03,1.99,17.86c1.79,5.88,4.28,11.53,7.24,17.01
		c2.86,5.53,5.98,10.9,9.88,15.55c1.93,2.33,4.08,4.45,6.5,6.07c2.41,1.61,5.12,2.66,7.9,2.63c2.77-0.06,5.56-1.08,7.93-2.83
		c2.4-1.71,4.46-4,6.17-6.53c3.47-5.07,5.59-11.08,6.86-17.25c-0.4,6.29-2.01,12.62-5.19,18.29c-1.62,2.81-3.66,5.44-6.25,7.58
		c-2.55,2.17-5.89,3.61-9.41,3.87c-1.76,0.11-3.55-0.13-5.22-0.63c-1.68-0.5-3.23-1.28-4.68-2.17c-2.88-1.81-5.32-4.1-7.48-6.55
		c-4.3-4.95-7.57-10.55-10.55-16.17c-2.96-5.64-5.58-11.58-7.33-17.81c-0.86-3.12-1.52-6.32-1.82-9.58c-0.34-3.26-0.24-6.6,0.4-9.88
		c0.68-3.26,1.95-6.49,4.02-9.16c2.01-2.71,4.74-4.78,7.68-6.24C493.41,971.42,500.04,970.97,506.28,971.75z"/>
</g>
<g>
	<path d="M583.73,935c-2.29-0.07-4.58,0.01-6.81,0.28c-2.23,0.28-4.43,0.73-6.46,1.55c-2.03,0.79-3.9,1.89-5.38,3.36
		c-1.48,1.47-2.66,3.23-3.46,5.17c-1.6,3.9-1.94,8.32-1.56,12.65c0.33,4.35,1.34,8.7,2.78,12.86c1.42,4.17,3.29,8.24,5.74,11.77
		c0.31,0.43,0.61,0.88,0.95,1.28c0.32,0.42,0.66,0.82,1.01,1.18c0.69,0.75,1.45,1.42,2.19,1.81c0.19,0.12,0.37,0.21,0.54,0.25
		c0.17,0.06,0.35,0.15,0.49,0.14c0.15,0.02,0.3,0.07,0.43,0.03c0.13,0.01,0.28-0.04,0.43-0.09c0.62-0.19,1.36-0.81,2.01-1.55
		c1.31-1.54,2.34-3.53,3.29-5.52c0.97-2,1.77-4.12,2.56-6.24c1.58-4.26,2.92-8.63,4.33-13c-0.55,4.56-1.37,9.08-2.45,13.57
		c-0.59,2.24-1.2,4.47-2.02,6.68c-0.82,2.21-1.78,4.39-3.28,6.47c-0.8,1.01-1.72,2.08-3.24,2.73c-0.38,0.16-0.78,0.29-1.22,0.33
		c-0.44,0.09-0.85,0.05-1.27,0.01c-0.44-0.02-0.8-0.14-1.17-0.26c-0.39-0.1-0.72-0.26-1.03-0.42c-1.3-0.64-2.3-1.49-3.2-2.37
		c-0.46-0.44-0.88-0.9-1.28-1.37c-0.42-0.46-0.78-0.95-1.15-1.43c-2.87-3.92-4.86-8.25-6.46-12.69c-0.75-2.24-1.36-4.53-1.84-6.85
		c-0.48-2.32-0.83-4.68-0.92-7.07c-0.18-4.74,0.25-9.73,2.51-14.19c1.11-2.21,2.62-4.25,4.56-5.82c1.94-1.58,4.2-2.63,6.51-3.26
		c2.32-0.61,4.68-0.84,7.01-0.79C579.19,934.21,581.49,934.51,583.73,935z"/>
</g>
</svg>
